<svg width="36" height="35" viewBox="0 0 36 35" fill="none" xmlns="http://www.w3.org/2000/svg">
<rect opacity="0.4" x="0.5" y="0.5" width="35" height="34" rx="17" stroke="white"/>
<g opacity="0.4" clip-path="url(#clip0_75_2907)">
<path d="M15.6705 20.7532L15.3893 24.7085C15.7916 24.7085 15.9659 24.5357 16.1748 24.3282L18.0611 22.5255L21.9697 25.3878C22.6865 25.7873 23.1916 25.577 23.385 24.7284L25.9505 12.7065L25.9513 12.7058C26.1786 11.6462 25.568 11.2318 24.8696 11.4918L9.78921 17.2654C8.76 17.6649 8.77558 18.2386 9.61425 18.4986L13.4697 19.6978L22.4252 14.0942C22.8466 13.8151 23.2298 13.9695 22.9146 14.2486L15.6705 20.7532Z" fill="white"/>
</g>
<defs>
<clipPath id="clip0_75_2907">
<rect width="17" height="17" fill="white" transform="translate(9 10)"/>
</clipPath>
</defs>
</svg>
