<svg width="10" height="40" viewBox="0 0 10 40" fill="none" xmlns="http://www.w3.org/2000/svg">
<path id="Arrow 2" d="M9 19.6353L9.5 19.6353L9 19.6353ZM0.727361 37.4191C0.495883 37.2686 0.430296 36.9588 0.58087 36.7274L3.0346 32.9552C3.18518 32.7237 3.49489 32.6581 3.72637 32.8087C3.95785 32.9593 4.02344 33.269 3.87286 33.5005L1.69176 36.8535L5.04479 39.0346C5.27627 39.1852 5.34186 39.4949 5.19129 39.7264C5.04071 39.9579 4.731 40.0234 4.49952 39.8729L0.727361 37.4191ZM1.66667 1C1.85407 0.536449 1.85451 0.536628 1.85499 0.53682C1.85518 0.536899 1.85568 0.537103 1.85607 0.537262C1.85685 0.53758 1.85774 0.537946 1.85874 0.538359C1.86075 0.539187 1.8632 0.540206 1.86608 0.541421C1.87186 0.543853 1.87938 0.547071 1.88859 0.551114C1.90702 0.559199 1.93222 0.570584 1.96374 0.585571C2.02678 0.615545 2.11509 0.659936 2.22505 0.72117C2.44497 0.843646 2.75142 1.0335 3.11515 1.31009C3.84321 1.86373 4.79816 2.76294 5.74699 4.1603C7.64705 6.95858 9.5 11.7202 9.5 19.6353L8.5 19.6353C8.5 11.8798 6.68628 7.32378 4.91968 4.72205C4.03517 3.41941 3.15679 2.59804 2.50985 2.10609C2.18609 1.85989 1.91962 1.69569 1.7385 1.59482C1.64793 1.54438 1.57869 1.50978 1.53431 1.48867C1.51212 1.47812 1.49614 1.47094 1.48682 1.46685C1.48216 1.46481 1.47916 1.46353 1.47788 1.463C1.47724 1.46273 1.47703 1.46264 1.47726 1.46274C1.47738 1.46278 1.4776 1.46287 1.47793 1.46301C1.4781 1.46308 1.47843 1.46321 1.47852 1.46325C1.47888 1.46339 1.47926 1.46355 1.66667 1ZM9.5 19.6353C9.5 27.5568 7.47652 32.0218 5.38295 34.5156C4.33853 35.7597 3.28738 36.4999 2.48697 36.9307C2.08721 37.1459 1.75072 37.2835 1.50963 37.3683C1.38908 37.4107 1.29232 37.4399 1.22334 37.459C1.18885 37.4686 1.1613 37.4756 1.14118 37.4805C1.13112 37.4829 1.12291 37.4848 1.11663 37.4863C1.11348 37.487 1.11082 37.4876 1.10864 37.4881C1.10755 37.4883 1.10659 37.4885 1.10574 37.4887C1.10532 37.4888 1.10478 37.4889 1.10457 37.4889C1.10406 37.4891 1.10358 37.4892 0.999998 37C0.896413 36.5108 0.895995 36.5109 0.895608 36.511C0.895519 36.511 0.895161 36.5111 0.894982 36.5112C0.894625 36.5112 0.894388 36.5113 0.894269 36.5113C0.89403 36.5114 0.894266 36.5113 0.894969 36.5112C0.896373 36.5108 0.899643 36.5101 0.904719 36.5088C0.914871 36.5064 0.932238 36.502 0.956342 36.4953C1.00456 36.4819 1.07967 36.4594 1.17787 36.4249C1.37428 36.3558 1.66279 36.2387 2.01303 36.0502C2.71261 35.6736 3.66147 35.0109 4.61705 33.8726C6.52348 31.6017 8.5 27.3843 8.5 19.6353L9.5 19.6353Z" fill="#DEE6F4"/>
</svg>
