<svg width="26" height="26" viewBox="0 0 26 26" fill="none" xmlns="http://www.w3.org/2000/svg">
<path d="M14.2496 18.916L22.375 9.16564C22.6491 8.83417 22.7808 8.40756 22.7411 7.97923C22.7014 7.5509 22.4936 7.15576 22.1632 6.88033C21.8327 6.60491 21.4066 6.47164 20.9781 6.50973C20.5497 6.54781 20.1537 6.75414 19.8771 7.08352L13.0006 15.3358L6.12416 7.08352C5.84787 6.75287 5.45163 6.5454 5.02248 6.5067C4.59334 6.468 4.16637 6.60122 3.83539 6.87711C3.5044 7.153 3.29646 7.54899 3.25724 7.97809C3.21803 8.4072 3.35074 8.83432 3.62624 9.16564L11.7517 18.916C11.9045 19.0989 12.0955 19.2459 12.3113 19.3468C12.5271 19.4478 12.7624 19.5001 13.0007 19.5001C13.2389 19.5001 13.4742 19.4478 13.69 19.3468C13.9059 19.2459 14.0969 19.0989 14.2496 18.916Z" fill="#1C69DB"/>
</svg>
