<svg width="26" height="26" viewBox="0 0 26 26" fill="none" xmlns="http://www.w3.org/2000/svg">
<path d="M14.2496 7.08396L22.375 16.8344C22.6491 17.1658 22.7808 17.5924 22.7411 18.0208C22.7014 18.4491 22.4936 18.8442 22.1632 19.1197C21.8327 19.3951 21.4066 19.5284 20.9781 19.4903C20.5497 19.4522 20.1537 19.2459 19.8771 18.9165L13.0006 10.6642L6.12416 18.9165C5.84787 19.2471 5.45163 19.4546 5.02248 19.4933C4.59334 19.532 4.16637 19.3988 3.83539 19.1229C3.5044 18.847 3.29646 18.451 3.25724 18.0219C3.21803 17.5928 3.35074 17.1657 3.62624 16.8344L11.7517 7.08396C11.9045 6.90113 12.0955 6.75407 12.3113 6.65315C12.5271 6.55224 12.7624 6.49993 13.0007 6.49993C13.2389 6.49993 13.4742 6.55224 13.69 6.65315C13.9059 6.75407 14.0969 6.90113 14.2496 7.08396Z" fill="#1C69DB"/>
</svg>
