<svg width="103" height="35" viewBox="0 0 103 35" fill="none" xmlns="http://www.w3.org/2000/svg">
<g id="icon">
<rect id="Rectangle 18" x="0.5" y="0.5" width="102" height="34" rx="17" stroke="#8F97B8"/>
<path id="Arrow 2" d="M18.6464 17.6464C18.4512 17.8417 18.4512 18.1583 18.6464 18.3536L21.8284 21.5355C22.0237 21.7308 22.3403 21.7308 22.5355 21.5355C22.7308 21.3403 22.7308 21.0237 22.5355 20.8284L19.7071 18L22.5355 15.1716C22.7308 14.9763 22.7308 14.6597 22.5355 14.4645C22.3403 14.2692 22.0237 14.2692 21.8284 14.4645L18.6464 17.6464ZM83.3536 18.3536C83.5488 18.1583 83.5488 17.8417 83.3536 17.6464L80.1716 14.4645C79.9763 14.2692 79.6597 14.2692 79.4645 14.4645C79.2692 14.6597 79.2692 14.9763 79.4645 15.1716L82.2929 18L79.4645 20.8284C79.2692 21.0237 79.2692 21.3403 79.4645 21.5355C79.6597 21.7308 79.9763 21.7308 80.1716 21.5355L83.3536 18.3536ZM19 18.5H83V17.5H19V18.5Z" fill="#8F97B8"/>
</g>
</svg>
