<svg width="20" height="20" viewBox="0 0 20 20" fill="none" xmlns="http://www.w3.org/2000/svg">
<g id="clock 1" clip-path="url(#clip0_75_2742)">
<g id="Group">
<g id="Group_2">
<g id="Group_3">
<path id="Vector" d="M10.0002 3.26085C10.2393 3.26085 10.435 3.06519 10.435 2.82606V2.60867C10.435 2.36954 10.2393 2.17389 10.0002 2.17389C9.76108 2.17389 9.56543 2.36954 9.56543 2.60867V2.82606C9.56543 3.06519 9.76108 3.26085 10.0002 3.26085Z" fill="#8F97B8"/>
<path id="Vector_2" d="M10.0002 16.7391C9.76108 16.7391 9.56543 16.9348 9.56543 17.1739V17.3913C9.56543 17.6304 9.76108 17.8261 10.0002 17.8261C10.2393 17.8261 10.435 17.6304 10.435 17.3913V17.1739C10.435 16.9348 10.2393 16.7391 10.0002 16.7391Z" fill="#8F97B8"/>
<path id="Vector_3" d="M2.826 9.56525H2.60861C2.36948 9.56525 2.17383 9.7609 2.17383 10C2.17383 10.2392 2.36948 10.4348 2.60861 10.4348H2.826C3.06513 10.4348 3.26078 10.2392 3.26078 10C3.26078 9.7609 3.06513 9.56525 2.826 9.56525Z" fill="#8F97B8"/>
<path id="Vector_4" d="M17.3914 9.56525H17.174C16.9349 9.56525 16.7393 9.7609 16.7393 10C16.7393 10.2392 16.9349 10.4348 17.174 10.4348H17.3914C17.6306 10.4348 17.8262 10.2392 17.8262 10C17.8262 9.7609 17.6306 9.56525 17.3914 9.56525Z" fill="#8F97B8"/>
<path id="Vector_5" d="M5.08679 4.47827C4.91287 4.30436 4.652 4.30436 4.47809 4.47827C4.30418 4.65219 4.30418 4.91306 4.47809 5.08697L4.63026 5.23914C4.71722 5.3261 4.82592 5.36958 4.93461 5.36958C5.04331 5.36958 5.152 5.3261 5.23896 5.23914C5.41287 5.06523 5.41287 4.80436 5.23896 4.63045L5.08679 4.47827Z" fill="#8F97B8"/>
<path id="Vector_6" d="M4.63026 14.7609L4.47809 14.913C4.30418 15.087 4.30418 15.3478 4.47809 15.5217C4.56505 15.6087 4.67374 15.6522 4.78244 15.6522C4.89113 15.6522 4.99983 15.6087 5.08679 15.5217L5.23896 15.3696C5.41287 15.1956 5.41287 14.9348 5.23896 14.7609C5.06505 14.587 4.80418 14.587 4.63026 14.7609Z" fill="#8F97B8"/>
<path id="Vector_7" d="M14.9135 4.47827L14.7613 4.63045C14.5874 4.80436 14.5874 5.06523 14.7613 5.23914C14.8483 5.3261 14.9569 5.36958 15.0656 5.36958C15.1743 5.36958 15.283 5.3261 15.37 5.23914L15.5222 5.08697C15.6961 4.91306 15.6961 4.65219 15.5222 4.47827C15.3483 4.30436 15.0874 4.30436 14.9135 4.47827Z" fill="#8F97B8"/>
<path id="Vector_8" d="M10.435 9.82606V5.86954C10.435 5.63041 10.2393 5.43475 10.0002 5.43475C9.76108 5.43475 9.56543 5.63041 9.56543 5.86954V9.99997C9.56543 10.1087 9.60891 10.2174 9.69586 10.3043L14.4567 15.0652C14.5437 15.1521 14.6524 15.1956 14.7611 15.1956C14.8698 15.1956 14.9785 15.1521 15.0654 15.0652C15.2393 14.8913 15.2393 14.6304 15.0654 14.4565L10.435 9.82606Z" fill="#8F97B8"/>
<path id="Vector_9" d="M10 0C4.47826 0 0 4.47826 0 10C0 15.5217 4.47826 20 10 20C15.5217 20 20 15.5217 20 10C20 4.47826 15.5217 0 10 0ZM10 19.1304C4.95652 19.1304 0.869565 15.0435 0.869565 10C0.869565 4.95652 4.95652 0.869565 10 0.869565C15.0435 0.869565 19.1304 4.95652 19.1304 10C19.1304 15.0435 15.0435 19.1304 10 19.1304Z" fill="#8F97B8"/>
</g>
</g>
</g>
</g>
<defs>
<clipPath id="clip0_75_2742">
<rect width="20" height="20" fill="white"/>
</clipPath>
</defs>
</svg>
