<svg width="22" height="22" viewBox="0 0 22 22" fill="none" xmlns="http://www.w3.org/2000/svg">
<g id="free-icon-eye-5491194 1" clip-path="url(#clip0_75_2885)">
<g id="Layer_x0020_1">
<g id="_218597608">
<path id="_218599024" fill-rule="evenodd" clip-rule="evenodd" d="M0 12.7785C3.72723 16.2922 7.63011 17.9824 11.6007 17.8026C14.8384 17.6559 17.5236 16.2646 19.2062 15.1233C20.6854 14.12 21.6705 13.1285 22 12.7785C21.6706 12.4286 20.6852 11.4371 19.2062 10.4339C17.5238 9.29246 14.8384 7.90118 11.6007 7.75451C7.6297 7.57404 3.72713 9.26495 0 12.7785ZM10.9901 16.3925C8.99738 16.3925 7.37615 14.7713 7.37615 12.7785C7.37635 10.7857 8.99733 9.16452 10.9901 9.16452C12.9832 9.16447 14.6044 10.7858 14.6044 12.7785C14.6045 14.7712 12.9832 16.3926 10.9901 16.3925Z" fill="#396CEE"/>
<path id="_218598520" fill-rule="evenodd" clip-rule="evenodd" d="M10.99 14.3377C10.1301 14.3377 9.43066 13.6382 9.43066 12.7784C9.43082 11.9186 10.1301 11.2191 10.99 11.2191C11.8499 11.2191 12.5492 11.9186 12.5492 12.7784C12.5494 13.6382 11.8499 14.3378 10.99 14.3377Z" fill="#396CEE"/>
<path id="_218598352" fill-rule="evenodd" clip-rule="evenodd" d="M20.1603 9.84164C20.1035 9.84164 20.0478 9.82662 19.9987 9.7982C19.8443 9.70873 19.7909 9.51075 19.8802 9.35611L20.8682 7.64526C20.9575 7.49072 21.1553 7.43764 21.3099 7.52675C21.4647 7.61592 21.518 7.81431 21.4287 7.969L20.4408 9.6798C20.3828 9.78018 20.2759 9.84169 20.1603 9.84164Z" fill="#396CEE"/>
<path id="_218598712" fill-rule="evenodd" clip-rule="evenodd" d="M17.4837 7.92475C17.4439 7.92475 17.4048 7.91749 17.3675 7.90328C17.201 7.83959 17.1177 7.65105 17.1817 7.48479L17.8403 5.77393C17.9044 5.60742 18.0917 5.52404 18.2583 5.58813C18.425 5.65228 18.5086 5.83976 18.4444 6.00647L17.786 7.71728C17.7379 7.84233 17.6173 7.9248 17.4837 7.92475Z" fill="#396CEE"/>
<path id="_218598472" fill-rule="evenodd" clip-rule="evenodd" d="M14.4448 6.6146C14.4243 6.6146 14.4038 6.61268 14.3836 6.60882C14.2081 6.57537 14.0933 6.40506 14.127 6.22981L14.4561 4.51896C14.4898 4.34331 14.6595 4.22841 14.8352 4.26226C15.0105 4.29606 15.1253 4.46597 15.0916 4.64127L14.7627 6.35197C14.7334 6.50448 14.5999 6.61466 14.4448 6.6146Z" fill="#396CEE"/>
<path id="_218597464" fill-rule="evenodd" clip-rule="evenodd" d="M11.149 6.11294C10.9703 6.11289 10.8252 5.96805 10.8252 5.78925L10.8252 4.07835C10.8252 3.89965 10.9702 3.75476 11.1488 3.75476C11.3277 3.75471 11.4726 3.8996 11.4726 4.0784L11.4727 5.7892C11.4727 5.96784 11.3277 6.11294 11.149 6.11294Z" fill="#396CEE"/>
<path id="_218597656" fill-rule="evenodd" clip-rule="evenodd" d="M4.65534 7.89773C4.52151 7.89773 4.40113 7.81567 4.35291 7.69031L3.69442 5.97946C3.63032 5.81279 3.71396 5.62527 3.88058 5.56117C4.04724 5.49707 4.23461 5.58035 4.29876 5.74692L4.95735 7.45777C5.02145 7.62418 4.93802 7.81206 4.77161 7.87611C4.73446 7.89042 4.69517 7.89778 4.65534 7.89773Z" fill="#396CEE"/>
<path id="_218597680" fill-rule="evenodd" clip-rule="evenodd" d="M1.82004 9.92346C1.70448 9.92341 1.5978 9.86159 1.53999 9.76151L0.552184 8.05071C0.462965 7.89617 0.515695 7.69789 0.67023 7.60857C0.824868 7.5192 1.0233 7.57238 1.11262 7.72702L2.10059 9.43782C2.18996 9.59256 2.13642 9.79034 1.98208 9.87991C1.93286 9.90849 1.87698 9.92346 1.82004 9.92346Z" fill="#396CEE"/>
<path id="_218597944" fill-rule="evenodd" clip-rule="evenodd" d="M7.84602 6.45996C7.69123 6.45996 7.55745 6.34963 7.52816 6.19738L7.19925 4.48658C7.1655 4.31123 7.2802 4.14157 7.45549 4.10762C7.63094 4.07367 7.8011 4.18882 7.83485 4.36427L8.16387 6.07502C8.19757 6.25042 8.08272 6.42089 7.90702 6.45413C7.88687 6.45793 7.86652 6.45996 7.84602 6.45996Z" fill="#396CEE"/>
</g>
</g>
</g>
<defs>
<clipPath id="clip0_75_2885">
<rect width="22" height="22" fill="white"/>
</clipPath>
</defs>
</svg>
