<svg width="44" height="44" viewBox="0 0 44 44" fill="none" xmlns="http://www.w3.org/2000/svg">
<g id="free-icon-protection-7464943 1">
<g id="10-Protection">
<path id="Vector" d="M38.6426 7.57728C38.5808 7.56422 32.4128 6.25432 30.4886 5.54265C28.3979 4.76921 22.3903 1.49217 22.3299 1.45928C22.2288 1.4041 22.1154 1.37518 22.0002 1.37518C21.885 1.37518 21.7717 1.4041 21.6706 1.45928C21.6102 1.49217 15.6026 4.7692 13.5119 5.54264C11.5877 6.25432 5.41969 7.56419 5.35795 7.57728C5.20044 7.61076 5.05964 7.69837 4.96004 7.8249C4.86043 7.95143 4.80832 8.10886 4.81276 8.26982C4.83291 8.96706 5.32839 25.3929 7.35665 29.8468C10.8606 37.5554 21.2738 42.3625 21.7156 42.5633C21.8021 42.6026 21.8957 42.6236 21.9907 42.625C22.0857 42.6263 22.1799 42.6079 22.2675 42.571C22.7448 42.3699 33.9885 37.5527 36.8084 29.7972C38.4694 25.226 39.1589 8.9684 39.1871 8.27855C39.1939 8.11616 39.1429 7.95662 39.0432 7.82825C38.9435 7.69988 38.8016 7.61097 38.6426 7.57728ZM35.5166 29.3275C33.1359 35.8749 23.7519 40.391 22.011 41.1809C20.3466 40.3685 11.5944 35.847 8.60811 29.2775C6.89607 25.5177 6.31398 11.7808 6.20656 8.80154C7.80446 8.45476 12.3061 7.45472 13.9886 6.83236C15.9054 6.1234 20.6877 3.55601 22.0003 2.84502C23.3128 3.55601 28.0951 6.1234 30.0119 6.83239C31.6924 7.45376 36.1833 8.45214 37.7873 8.79989C37.6469 11.7832 36.9353 25.4214 35.5166 29.3275ZM25.8849 19.0718C25.9536 19.1305 26.01 19.2021 26.0509 19.2826C26.0918 19.3632 26.1164 19.451 26.1233 19.541C26.1303 19.6311 26.1193 19.7216 26.0912 19.8075C26.0631 19.8933 26.0183 19.9727 25.9594 20.0412L21.8344 24.8537C21.7209 24.9863 21.5612 25.0707 21.3877 25.0897C21.2143 25.1087 21.0401 25.0609 20.9005 24.9561L18.1505 22.8936C18.078 22.8396 18.0169 22.7718 17.9707 22.6941C17.9244 22.6164 17.894 22.5304 17.881 22.4409C17.8681 22.3514 17.873 22.2602 17.8953 22.1726C17.9177 22.085 17.9571 22.0027 18.0113 21.9304C18.0656 21.858 18.1336 21.7971 18.2114 21.7511C18.2892 21.7051 18.3753 21.6748 18.4648 21.6622C18.5544 21.6495 18.6455 21.6546 18.733 21.6772C18.8206 21.6998 18.9028 21.7395 18.975 21.7939L21.2101 23.4697L24.9161 19.1463C25.0348 19.0081 25.2035 18.9226 25.3851 18.9086C25.5667 18.8947 25.7465 18.9533 25.8849 19.0718ZM22.344 13.75C20.6443 13.75 18.9828 14.254 17.5696 15.1983C16.1563 16.1426 15.0549 17.4848 14.4044 19.0551C13.754 20.6254 13.5838 22.3533 13.9154 24.0203C14.247 25.6873 15.0655 27.2186 16.2673 28.4205C17.4692 29.6223 19.0004 30.4408 20.6675 30.7724C22.3345 31.104 24.0624 30.9338 25.6327 30.2834C27.203 29.6329 28.5452 28.5314 29.4895 27.1182C30.4337 25.705 30.9378 24.0435 30.9378 22.3438C30.9352 20.0653 30.029 17.881 28.4179 16.2699C26.8068 14.6588 24.6224 13.7526 22.344 13.75ZM22.344 29.5625C20.9163 29.5625 19.5206 29.1391 18.3335 28.3459C17.1464 27.5527 16.2211 26.4253 15.6748 25.1063C15.1284 23.7872 14.9854 22.3358 15.264 20.9355C15.5425 19.5352 16.23 18.2489 17.2396 17.2393C18.2491 16.2298 19.5354 15.5423 20.9357 15.2637C22.336 14.9852 23.7875 15.1281 25.1065 15.6745C26.4256 16.2209 27.553 17.1461 28.3462 18.3332C29.1394 19.5204 29.5628 20.916 29.5628 22.3438C29.5606 24.2576 28.7994 26.0925 27.4461 27.4458C26.0928 28.7991 24.2579 29.5604 22.344 29.5625Z" fill="white"/>
</g>
</g>
</svg>
