<svg width="38" height="38" viewBox="0 0 38 38" fill="none" xmlns="http://www.w3.org/2000/svg">
<g id="free-icon-change-management-8630291 1">
<path id="Vector" d="M3.38453 31.8131C3.71703 32.2881 4.05547 32.6978 4.41766 33.0719L5.27266 32.2466C4.95203 31.92 4.65516 31.5519 4.35234 31.1244C4.09109 30.7622 3.85359 30.3822 3.65172 30.0022C2.81453 28.4584 2.37516 26.7069 2.37516 24.9434C2.37516 19.0475 7.17266 14.2559 13.0627 14.2559H13.128C13.2111 15.0753 13.3655 15.8769 13.6148 16.6547C13.4308 16.6428 13.2467 16.6309 13.0627 16.6309C8.47891 16.6309 4.75016 20.3597 4.75016 24.9434C4.75016 29.5272 8.47891 33.2559 13.0627 33.2559C16.9398 33.2559 20.2648 30.6256 21.1495 26.8553C21.2505 26.4159 21.3158 25.9884 21.3455 25.5788L20.1639 25.4897C20.1461 25.6975 20.1164 25.9112 20.0808 26.125H11.2755C10.9727 26.125 10.7233 26.3506 10.6877 26.6416L8.63922 24.9375L10.6877 23.2334C10.7233 23.5244 10.9727 23.75 11.2755 23.75H17.213V22.5625H11.8692V21.9688C11.8692 21.7372 11.7386 21.5294 11.5248 21.4284C11.317 21.3334 11.0677 21.3631 10.8955 21.5116L7.33297 24.4803C7.19641 24.5931 7.11922 24.7594 7.11922 24.9375C7.11922 25.1156 7.19641 25.2819 7.33297 25.3947L10.8955 28.3634C11.0023 28.4525 11.1389 28.5 11.2755 28.5C11.3586 28.5 11.4477 28.4822 11.5248 28.4466C11.7327 28.3516 11.8692 28.1378 11.8692 27.9062V27.3125H19.772C18.7805 30.1447 16.1205 32.0625 13.0567 32.0625C9.12609 32.0625 5.93172 28.8681 5.93172 24.9375C5.93172 21.0069 9.12609 17.8125 13.0567 17.8125C13.502 17.8125 13.9473 17.8541 14.3867 17.9372C16.8923 18.4122 18.9348 20.1934 19.7661 22.5625H18.3945V23.75H20.0748C20.1105 23.9697 20.1402 24.1834 20.158 24.3853L21.3395 24.2962C21.3098 23.8866 21.2445 23.4591 21.1436 23.0137C20.4192 19.9381 18.0027 17.5513 14.9448 16.8447C14.553 15.8175 14.3155 14.7428 14.2561 13.6503C14.2561 13.4544 14.2442 13.2584 14.2442 13.0625C14.2442 7.16656 19.0417 2.375 24.9317 2.375C27.3364 2.375 29.6045 3.15281 31.4808 4.62531L32.2111 3.68719C30.1211 2.04844 27.5977 1.1875 24.9258 1.1875C18.3767 1.1875 13.0508 6.51344 13.0508 13.0625C6.50172 13.0625 1.17578 18.3884 1.17578 24.9375C1.17578 26.9028 1.66859 28.8444 2.59484 30.5603C2.82641 30.9878 3.08766 31.4094 3.37266 31.8072L3.38453 31.8131Z" fill="white"/>
<path id="Vector_2" d="M34.3484 8.00375C35.1856 9.5475 35.625 11.2991 35.625 13.0625C35.625 18.9584 30.8275 23.75 24.9375 23.75C24.9137 23.75 24.8959 23.75 24.8722 23.75C24.7891 22.9306 24.6347 22.1291 24.3853 21.3512C24.5694 21.3631 24.7534 21.375 24.9375 21.375C29.5212 21.375 33.25 17.6462 33.25 13.0625C33.25 8.47875 29.5212 4.75 24.9375 4.75C21.0603 4.75 17.7353 7.38031 16.8506 11.1506C16.7437 11.6078 16.6844 12.0294 16.6606 12.4391L17.8481 12.5103C17.86 12.3084 17.8897 12.1006 17.9253 11.8809H26.7247C27.0275 11.8809 27.2769 11.6553 27.3125 11.3644L29.3609 13.0684L27.3125 14.7725C27.2769 14.4816 27.0275 14.2559 26.7247 14.2559H20.7872V15.4434H26.1309V16.0372C26.1309 16.2688 26.2616 16.4766 26.4753 16.5775C26.5525 16.6131 26.6416 16.6309 26.7247 16.6309C26.8612 16.6309 26.9978 16.5834 27.1047 16.4944L30.6672 13.5256C30.8037 13.4128 30.8809 13.2466 30.8809 13.0684C30.8809 12.8903 30.8037 12.7241 30.6672 12.6112L27.1047 9.6425C26.9266 9.49406 26.6831 9.46438 26.4753 9.55938C26.2675 9.65438 26.1309 9.86812 26.1309 10.0997V10.6934H18.2281C19.2197 7.86125 21.8797 5.94344 24.9434 5.94344C28.8741 5.94344 32.0684 9.13781 32.0684 13.0684C32.0684 16.9991 28.8741 20.1934 24.9434 20.1934C24.4981 20.1934 24.0528 20.1519 23.6134 20.0687C21.1078 19.5938 19.0653 17.8125 18.2341 15.4434H19.6056V14.2559H17.9312C17.8956 14.0363 17.8659 13.8284 17.8541 13.6266L16.6666 13.6978C16.6903 14.1075 16.7556 14.5231 16.8566 14.9862C17.5809 18.0619 19.9975 20.4488 23.0553 21.1553C23.4472 22.1825 23.6847 23.2572 23.7441 24.3497C23.7441 24.5456 23.7559 24.7416 23.7559 24.9375C23.7559 30.8334 18.9584 35.625 13.0684 35.625C10.6637 35.625 8.39562 34.8472 6.51937 33.3747L5.78906 34.3128C7.87906 35.9516 10.4025 36.8125 13.0744 36.8125C19.6234 36.8125 24.9494 31.4866 24.9494 24.9375C31.4984 24.9375 36.8244 19.6116 36.8244 13.0625C36.8244 11.0972 36.3316 9.15562 35.4053 7.43969C35.1737 7.01219 34.9125 6.59063 34.6275 6.19281C34.295 5.71781 33.9566 5.30813 33.5944 4.93406L32.7394 5.75937C33.06 6.08594 33.3569 6.45406 33.6597 6.88156C33.9209 7.24375 34.1584 7.62375 34.3603 8.00375H34.3484Z" fill="white"/>
</g>
</svg>
