<svg width="40" height="40" viewBox="0 0 40 40" fill="none" xmlns="http://www.w3.org/2000/svg">
<g id="free-icon-logistics-delivery-9884358 1">
<path id="Vector" d="M20.0003 19.8822C18.1538 19.8822 16.3645 20.5224 14.9372 21.6938C13.5099 22.8651 12.5329 24.4951 12.1727 26.3061C11.8124 28.117 12.0913 29.9969 12.9617 31.6253C13.8321 33.2537 15.2402 34.5299 16.946 35.2365C18.6519 35.9431 20.55 36.0364 22.317 35.5004C24.0839 34.9644 25.6103 33.8324 26.6361 32.2971C27.662 30.7619 28.1237 28.9184 27.9428 27.0809C27.7618 25.2433 26.9493 23.5254 25.6436 22.2198C24.9043 21.4763 24.0248 20.8869 23.0561 20.4857C22.0874 20.0844 21.0488 19.8793 20.0003 19.8822ZM24.7597 32.6226C23.8184 33.5639 22.619 34.205 21.3133 34.4648C20.0076 34.7245 18.6543 34.5912 17.4243 34.0817C16.1944 33.5723 15.1431 32.7096 14.4035 31.6027C13.6639 30.4957 13.2691 29.1944 13.2691 27.8631C13.2691 26.5318 13.6639 25.2304 14.4035 24.1235C15.1431 23.0166 16.1944 22.1539 17.4243 21.6444C18.6543 21.135 20.0076 21.0017 21.3133 21.2614C22.619 21.5211 23.8184 22.1622 24.7597 23.1036C25.3901 23.7256 25.8906 24.4667 26.2322 25.2837C26.5738 26.1008 26.7497 26.9775 26.7497 27.8631C26.7497 28.7487 26.5738 29.6254 26.2322 30.4425C25.8906 31.2595 25.3901 32.0005 24.7597 32.6226ZM33.9782 0.625H6.02238C4.9588 0.626199 3.93912 1.04924 3.18705 1.80131C2.43498 2.55338 2.01194 3.57306 2.01074 4.63664V35.3632C2.0119 36.4268 2.43492 37.4465 3.18699 38.1986C3.93907 38.9507 4.95877 39.3738 6.02238 39.375H33.9782C35.0418 39.3738 36.0615 38.9508 36.8135 38.1987C37.5656 37.4466 37.9886 36.4269 37.9898 35.3633V4.63664C37.9886 3.57306 37.5656 2.55338 36.8135 1.80131C36.0614 1.04924 35.0417 0.626199 33.9782 0.625ZM36.7398 4.63664V10.5391H25.5514V1.875H33.9782C34.7103 1.87583 35.4123 2.16705 35.93 2.68478C36.4478 3.20251 36.739 3.90446 36.7398 4.63664ZM15.6992 1.875H24.3014V16.538L20.3743 13.6038C20.2663 13.5231 20.1351 13.4795 20.0003 13.4795C19.8654 13.4795 19.7342 13.5231 19.6262 13.6038L15.6992 16.538V1.875ZM6.02238 1.875H14.4492V10.5391H3.26074V4.63664C3.26157 3.90446 3.55279 3.20251 4.07052 2.68478C4.58825 2.16705 5.2902 1.87583 6.02238 1.875ZM33.9782 38.125H6.02238C5.2902 38.1242 4.58824 37.8329 4.07052 37.3152C3.55279 36.7974 3.26157 36.0955 3.26074 35.3633V11.7891H14.4492V17.7854C14.4492 17.9014 14.4814 18.015 14.5424 18.1137C14.6033 18.2124 14.6905 18.2922 14.7941 18.3441C14.8978 18.3961 15.0139 18.4182 15.1294 18.4079C15.245 18.3977 15.3553 18.3555 15.4482 18.2861L20.0003 14.8847L24.5523 18.2858C24.6452 18.3552 24.7556 18.3974 24.8711 18.4076C24.9866 18.4179 25.1027 18.3958 25.2064 18.3438C25.3101 18.2919 25.3973 18.2121 25.4582 18.1134C25.5191 18.0147 25.5514 17.901 25.5514 17.7851V11.7891H36.7398V35.3633C36.739 36.0955 36.4478 36.7974 35.93 37.3152C35.4123 37.8329 34.7104 38.1242 33.9782 38.125ZM22.831 24.1613C22.5947 24.1604 22.3607 24.2064 22.1423 24.2966C21.924 24.3868 21.7257 24.5194 21.5589 24.6867L19.1157 27.1299L18.4432 26.4574C18.1049 26.1234 17.6482 25.9368 17.1729 25.9383C16.6975 25.9398 16.242 26.1293 15.9059 26.4655C15.5697 26.8016 15.3802 27.2571 15.3787 27.7324C15.3772 28.2078 15.5638 28.6645 15.8979 29.0027C16.2229 29.3277 16.5463 29.6922 16.8588 30.0445C17.1741 30.4 17.472 30.7357 17.7755 31.0392C18.1133 31.3763 18.571 31.5655 19.0481 31.5655C19.5253 31.5655 19.983 31.3763 20.3207 31.0392C20.955 30.405 21.5951 29.758 22.2141 29.1326C22.8331 28.5072 23.4709 27.8626 24.1029 27.2306C24.3546 26.9792 24.5261 26.6588 24.5956 26.3099C24.6652 25.9609 24.6296 25.5992 24.4933 25.2705C24.3571 24.9418 24.1264 24.661 23.8305 24.4635C23.5345 24.266 23.1866 24.1608 22.8308 24.1613H22.831ZM23.2191 26.3468C22.5849 26.9809 21.9448 27.628 21.3257 28.253C20.7079 28.8775 20.0689 29.5231 19.4371 30.1551C19.3339 30.258 19.1941 30.3158 19.0483 30.3158C18.9026 30.3158 18.7628 30.258 18.6596 30.1551C18.3824 29.878 18.0965 29.5558 17.7939 29.2148C17.4691 28.8486 17.1332 28.4699 16.7818 28.1186C16.6786 28.0155 16.6207 27.8757 16.6207 27.7298C16.6207 27.584 16.6786 27.4442 16.7817 27.3411C16.8848 27.2379 17.0247 27.18 17.1705 27.18C17.3163 27.18 17.4561 27.2379 17.5593 27.341L18.6738 28.4555C18.791 28.5727 18.95 28.6385 19.1157 28.6385C19.2815 28.6385 19.4404 28.5727 19.5576 28.4555L22.4429 25.5703C22.4937 25.5187 22.5542 25.4777 22.621 25.4496C22.6877 25.4216 22.7594 25.407 22.8318 25.4067C22.9042 25.4064 22.976 25.4205 23.0429 25.4481C23.1099 25.4757 23.1707 25.5163 23.2219 25.5675C23.2732 25.6187 23.3137 25.6795 23.3413 25.7465C23.3689 25.8134 23.383 25.8852 23.3827 25.9576C23.3824 26.03 23.3679 26.1017 23.3398 26.1684C23.3117 26.2352 23.2707 26.2957 23.2191 26.3466V26.3468Z" fill="white"/>
</g>
</svg>
