<svg width="21" height="19" viewBox="0 0 21 19" fill="none" xmlns="http://www.w3.org/2000/svg">
<path d="M15.449 2.641C12.7155 -0.0478748 8.28363 -0.0478748 5.55012 2.641C2.81662 5.33075 2.81662 9.69087 5.55012 12.3797L10.4991 17.2491L15.449 12.3797C18.1825 9.69087 18.1825 5.33075 15.449 2.641ZM10.4991 9.81162C9.91463 9.81162 9.366 9.58412 8.95213 9.17112C8.099 8.318 8.099 6.93025 8.95213 6.07712C9.36513 5.66412 9.91463 5.43662 10.4991 5.43662C11.0836 5.43662 11.6331 5.66412 12.0461 6.07712C12.8993 6.93025 12.8993 8.31887 12.0461 9.17112C11.6331 9.58412 11.0836 9.81162 10.4991 9.81162Z" fill="#1C69DB"/>
</svg>
